# xmcd
#
# Track frame offsets: 
#        150
#        22425
#        34275
#        52350
#        63825
#        86625
#        97340
#        113775
#        127050
#        143175
#        154284
#
# Disc length: 2317 seconds
#
# Revision: 0
# Processed by: cddbd v1.5.2PL0 Copyright (c) Steve Scherf et al.
# Submitted via: ExactAudioCopy v0.95b3
#
DISCID=ad090b0b
DTITLE=The Guess Who  - Rockin' (Remastered Edition)   FLAC
DYEAR=1900
DGENRE=
TTITLE0=Heartbroken Bopper
TTITLE1=Get Your Ribbons On
TTITLE2=Smoke Big Factory
TTITLE3=Arrividerci Girl
TTITLE4=Guns Guns Guns
TTITLE5=Running Bear
TTITLE6=Back To The City
TTITLE7=Your Nashville Sneakers
TTITLE8=Herbert's A Loser
TTITLE9=Sea Of Love
TTITLE10=Medley - Heaven Only Moved Once Yesterday and Don't You Want Me
EXTD=
EXTT0=
EXTT1=
EXTT2=
EXTT3=
EXTT4=
EXTT5=
EXTT6=
EXTT7=
EXTT8=
EXTT9=
EXTT10=
PLAYORDER=
